<?xml version="1.0" encoding="utf-8"?>
<!-- Generator: Adobe Illustrator 25.4.1, SVG Export Plug-In . SVG Version: 6.00 Build 0)  -->
<svg version="1.1" id="Layer_1" xmlns="http://www.w3.org/2000/svg" xmlns:xlink="http://www.w3.org/1999/xlink" x="0px" y="0px"
	 viewBox="0 0 168 40" style="enable-background:new 0 0 168 40;" xml:space="preserve">
<style type="text/css">
	.st0{fill-rule:evenodd;clip-rule:evenodd;}
</style>
<g>
	<path class="st0" d="M36.11,7.18l0.19,1.18c0.15,1.09,0.22,2.2,0.21,3.31c0,2.44-0.3,4.88-0.88,7.25
		c-0.79,3.22-2.16,6.28-4.04,9.01c-2.18,3.14-5.33,6.22-9.93,8.7l-0.56,0.3l-0.56-0.3c-4.59-2.48-7.74-5.56-9.93-8.7
		c-1.89-2.73-3.26-5.78-4.04-9.01C6,16.54,5.7,14.1,5.7,11.66c-0.01-1.11,0.06-2.21,0.21-3.31l0.19-1.18
		c0.02-0.1,0.01-0.19-0.01-0.29C6.08,6.79,6.04,6.7,5.98,6.62c-0.06-0.08-0.13-0.15-0.21-0.2C5.69,6.37,5.6,6.34,5.5,6.32
		c-0.1-0.02-0.19-0.01-0.29,0.01C5.12,6.35,5.03,6.4,4.95,6.45C4.87,6.51,4.8,6.58,4.75,6.66C4.7,6.75,4.67,6.84,4.65,6.94
		L4.46,8.11c-0.17,1.17-0.25,2.36-0.23,3.55c0,2.56,0.31,5.12,0.92,7.61c0.83,3.4,2.28,6.62,4.27,9.5c2.3,3.31,5.64,6.57,10.44,9.15
		l0.91,0.49c0.11,0.06,0.23,0.09,0.35,0.09s0.24-0.03,0.35-0.09l0.91-0.49c4.8-2.59,8.14-5.84,10.44-9.15
		c1.99-2.88,3.44-6.1,4.27-9.49c0.61-2.49,0.92-5.04,0.92-7.61c0.01-1.19-0.07-2.37-0.23-3.55l-0.19-1.18
		c-0.02-0.1-0.05-0.19-0.1-0.27c-0.05-0.08-0.12-0.16-0.2-0.21c-0.08-0.06-0.17-0.1-0.26-0.12c-0.09-0.02-0.19-0.03-0.29-0.01
		c-0.1,0.02-0.19,0.05-0.27,0.1c-0.08,0.05-0.15,0.12-0.21,0.2c-0.06,0.08-0.1,0.17-0.12,0.26C36.11,6.98,36.11,7.08,36.11,7.18
		L36.11,7.18L36.11,7.18z"/>
	<path class="st0" d="M10.14,6.37l10.97-3.35l11.22,3.42c0.19,0.06,0.39,0.04,0.56-0.06c0.17-0.09,0.3-0.25,0.36-0.44
		c0.06-0.19,0.04-0.39-0.05-0.56c-0.09-0.17-0.25-0.3-0.44-0.36L21.33,1.54c-0.14-0.04-0.29-0.04-0.43,0L9.71,4.95
		C9.62,4.98,9.53,5.03,9.46,5.09C9.38,5.15,9.32,5.23,9.27,5.31C9.22,5.4,9.2,5.49,9.19,5.59c-0.01,0.1,0,0.2,0.03,0.29
		c0.03,0.09,0.07,0.18,0.14,0.26c0.06,0.08,0.14,0.14,0.22,0.18C9.66,6.36,9.76,6.39,9.85,6.4C9.95,6.41,10.05,6.4,10.14,6.37
		L10.14,6.37L10.14,6.37z"/>
	<path class="st0" d="M4.73,7.39l15.73,30.7c0.06,0.12,0.15,0.22,0.27,0.29c0.11,0.07,0.25,0.11,0.38,0.11
		c0.13,0,0.27-0.03,0.38-0.1c0.12-0.07,0.21-0.17,0.27-0.29l9.59-17.94l0.01-0.03l6.14-12.76c0.08-0.18,0.09-0.38,0.03-0.56
		c-0.06-0.18-0.2-0.33-0.37-0.42c-0.18-0.08-0.38-0.1-0.56-0.03c-0.18,0.06-0.34,0.2-0.42,0.37l-6.13,12.75l-8.91,16.68L6.04,6.72
		C6,6.63,5.94,6.55,5.86,6.49C5.79,6.42,5.7,6.37,5.61,6.34C5.52,6.31,5.42,6.3,5.32,6.31c-0.1,0.01-0.19,0.03-0.28,0.08
		C4.96,6.43,4.88,6.49,4.82,6.57C4.75,6.64,4.7,6.73,4.68,6.82C4.65,6.92,4.64,7.01,4.64,7.11C4.65,7.21,4.68,7.3,4.73,7.39
		L4.73,7.39z"/>
	<path class="st0" d="M12.26,21.06h17.49c0.2,0,0.38-0.08,0.52-0.22c0.14-0.14,0.22-0.33,0.22-0.52c0-0.2-0.08-0.38-0.22-0.52
		c-0.14-0.14-0.33-0.22-0.52-0.22H12.26c-0.2,0-0.38,0.08-0.52,0.22c-0.14,0.14-0.22,0.33-0.22,0.52c0,0.2,0.08,0.38,0.22,0.52
		C11.87,20.99,12.06,21.06,12.26,21.06L12.26,21.06z M61.04,14.69H49.66c-0.2,0-0.38,0.08-0.52,0.22c-0.14,0.14-0.22,0.33-0.22,0.52
		v9.13c0,0.2,0.08,0.38,0.22,0.52c0.14,0.14,0.33,0.22,0.52,0.22h11.38v1.55H49.66c-0.3,0-0.6-0.06-0.88-0.17
		c-0.28-0.11-0.53-0.28-0.74-0.49s-0.38-0.46-0.49-0.74c-0.11-0.28-0.17-0.58-0.17-0.88v-9.13c0-0.3,0.06-0.6,0.17-0.88
		c0.11-0.28,0.28-0.53,0.49-0.74c0.21-0.21,0.46-0.38,0.74-0.49c0.28-0.11,0.58-0.17,0.88-0.17h11.38V14.69L61.04,14.69z
		 M82.4,13.15v1.55H71.45v4.52h8.81v1.56h-8.81v4.53H82.4v1.55H69.9v-13.7H82.4z"/>
	<path d="M104.97,15.46v4.01c0,0.3-0.06,0.6-0.17,0.88c-0.11,0.28-0.28,0.53-0.49,0.74c-0.21,0.21-0.46,0.38-0.74,0.49
		c-0.28,0.11-0.58,0.17-0.88,0.17h-2.09l4.3,5.1h-2.04l-4.28-5.1h-5.03c-0.25-0.01-0.5-0.04-0.74-0.08v5.17h-1.55V13.17h11.41
		c0.3,0,0.6,0.06,0.88,0.17c0.28,0.11,0.53,0.28,0.74,0.49c0.21,0.21,0.38,0.46,0.49,0.74c0.11,0.28,0.17,0.57,0.17,0.88H104.97
		L104.97,15.46z M93.55,20.19h9.13c0.1,0,0.19-0.02,0.28-0.05c0.09-0.04,0.17-0.09,0.24-0.16c0.07-0.07,0.12-0.15,0.16-0.24
		c0.04-0.09,0.05-0.18,0.05-0.28v-4.01c0-0.1-0.02-0.19-0.05-0.28c-0.04-0.09-0.09-0.17-0.16-0.24c-0.07-0.07-0.15-0.13-0.23-0.16
		c-0.09-0.04-0.18-0.06-0.28-0.05h-9.13c-0.2,0-0.38,0.08-0.52,0.22c-0.14,0.14-0.22,0.33-0.22,0.52v4.01c0,0.1,0.02,0.19,0.05,0.28
		c0.04,0.09,0.09,0.17,0.16,0.23c0.07,0.07,0.15,0.12,0.24,0.16C93.36,20.18,93.46,20.19,93.55,20.19L93.55,20.19z"/>
	<path class="st0" d="M113.15,13.15h13.69v1.55h-6.06v12.16h-1.55V14.7h-6.09V13.15z M135.14,26.85v-13.7h1.55v13.7H135.14z
		 M157.25,13.15h1.98L153.5,20l5.74,6.85h-2l-5.1-6.07h-4.41v6.07h-1.56v-13.7h1.56v6.07h4.41L157.25,13.15z"/>
</g>
</svg>
